<svg width="150" height="150" viewBox="0 0 150 150" fill="none" xmlns="http://www.w3.org/2000/svg">
<path d="M67.9014 77.1745V33.366L71.5141 39.8791L57.3486 45.3067L54.4965 33.5986L73.5106 26H83.8733V77.1745H67.9014ZM55.8275 81.0513V69.3432H96.3275V81.0513H55.8275Z" fill="#951ECD"/>
<path fill-rule="evenodd" clip-rule="evenodd" d="M75 150C116.421 150 150 116.421 150 75C150 33.5786 116.421 0 75 0C33.5786 0 0 33.5786 0 75C0 116.421 33.5786 150 75 150ZM75 140C110.899 140 140 110.899 140 75C140 39.1015 110.899 10 75 10C39.1015 10 10 39.1015 10 75C10 110.899 39.1015 140 75 140Z" fill="#951ECD"/>
<path d="M63.856 96.544V116.2H58.492V100.576H51.364V116.2H46V96.544H63.856ZM66.8924 121.312L81.9044 91H87.6284L72.6884 121.312H66.8924ZM104.396 96.544V100.576H96.1882V116.2H90.8242V96.544H104.396Z" fill="#951ECD"/>
</svg>
