<svg width="9" height="9" viewBox="0 0 9 9" fill="none" xmlns="http://www.w3.org/2000/svg">
<g clip-path="url(#clip0_50_74)">
<path d="M8.99775 4.49888C8.99775 6.9835 6.9835 8.99775 4.49888 8.99775C2.01421 8.99775 0 6.9835 0 4.49888C0 2.01421 2.01421 0 4.49888 0C6.9835 0 8.99775 2.01421 8.99775 4.49888Z" fill="#621785"/>
<path d="M6.74829 4.49889C6.74829 5.74123 5.74119 6.74833 4.49887 6.74833C3.25654 6.74833 2.24944 5.74123 2.24944 4.49889C2.24944 3.25656 3.25654 2.24945 4.49887 2.24945C5.74119 2.24945 6.74829 3.25656 6.74829 4.49889Z" fill="white"/>
<path d="M8.69783 4.49888C8.69783 6.81791 6.81791 8.69783 4.49888 8.69783C2.17986 8.69783 0.299927 6.81791 0.299927 4.49888C0.299927 2.17986 2.17986 0.299927 4.49888 0.299927C6.81791 0.299927 8.69783 2.17986 8.69783 4.49888ZM6.44841 4.49888C6.44841 5.57555 5.57555 6.44841 4.49888 6.44841C3.42219 6.44841 2.54936 5.57555 2.54936 4.49888C2.54936 3.42219 3.42219 2.54936 4.49888 2.54936C5.57555 2.54936 6.44841 3.42219 6.44841 4.49888ZM4.49888 7.04826C5.90684 7.04826 7.04826 5.90684 7.04826 4.49888C7.04826 3.0909 5.90684 1.94951 4.49888 1.94951C3.0909 1.94951 1.94951 3.0909 1.94951 4.49888C1.94951 5.90684 3.0909 7.04826 4.49888 7.04826Z" stroke="#621785" stroke-width="0.6665"/>
</g>
<defs>
<clipPath id="clip0_50_74">
<rect width="9" height="9" fill="white"/>
</clipPath>
</defs>
</svg>
