<svg width="10" height="10" viewBox="0 0 10 10" fill="none" xmlns="http://www.w3.org/2000/svg">
<g clip-path="url(#clip0_50_74)">
<path d="M9.9975 4.99875C9.9975 7.75945 7.75945 9.9975 4.99875 9.9975C2.23802 9.9975 0 7.75945 0 4.99875C0 2.23802 2.23802 0 4.99875 0C7.75945 0 9.9975 2.23802 9.9975 4.99875Z" fill="#621785"/>
<path d="M7.4981 4.99876C7.4981 6.37915 6.3791 7.49815 4.99875 7.49815C3.61838 7.49815 2.49937 6.37915 2.49937 4.99876C2.49937 3.61839 3.61838 2.49939 4.99875 2.49939C6.3791 2.49939 7.4981 3.61839 7.4981 4.99876Z" fill="white"/>
<path d="M9.66425 4.99875C9.66425 7.57545 7.57545 9.66425 4.99875 9.66425C2.42207 9.66425 0.333252 7.57545 0.333252 4.99875C0.333252 2.42207 2.42207 0.333252 4.99875 0.333252C7.57545 0.333252 9.66425 2.42207 9.66425 4.99875ZM7.1649 4.99875C7.1649 6.19505 6.19505 7.1649 4.99875 7.1649C3.80243 7.1649 2.83262 6.19505 2.83262 4.99875C2.83262 3.80243 3.80243 2.83262 4.99875 2.83262C6.19505 2.83262 7.1649 3.80243 7.1649 4.99875ZM4.99875 7.8314C6.56315 7.8314 7.8314 6.56315 7.8314 4.99875C7.8314 3.43434 6.56315 2.16613 4.99875 2.16613C3.43434 2.16613 2.16613 3.43434 2.16613 4.99875C2.16613 6.56315 3.43434 7.8314 4.99875 7.8314Z" stroke="#621785" stroke-width="0.6665"/>
</g>
<defs>
<clipPath id="clip0_50_74">
<rect width="10" height="10" fill="white"/>
</clipPath>
</defs>
</svg>
