<svg width="150" height="150" viewBox="0 0 150 150" fill="none" xmlns="http://www.w3.org/2000/svg">
<path fill-rule="evenodd" clip-rule="evenodd" d="M75 150C116.421 150 150 116.421 150 75C150 33.5786 116.421 0 75 0C33.5786 0 0 33.5786 0 75C0 116.421 33.5786 150 75 150ZM75 140C110.899 140 140 110.899 140 75C140 39.1015 110.899 10 75 10C39.1015 10 10 39.1015 10 75C10 110.899 39.1015 140 75 140Z" fill="#1D9144"/>
<path d="M57.8528 81L55.2824 74.6031L70.478 57.6969C71.3852 56.7323 72.3428 55.6408 73.3508 54.4223C74.3588 53.2038 75.3165 51.96 76.2237 50.6908C77.1813 49.3708 77.9373 48.1015 78.4917 46.8831C79.0965 45.6646 79.3989 44.5731 79.3989 43.6085C79.3989 42.5931 79.1721 41.7046 78.7185 40.9431C78.3153 40.1815 77.6853 39.5977 76.8285 39.1915C76.0221 38.7346 74.9636 38.5062 73.6532 38.5062C72.5444 38.5062 71.4608 38.8108 70.4024 39.42C69.344 40.0292 68.336 40.9431 67.3784 42.1615C66.4712 43.3292 65.6144 44.8269 64.808 46.6546L55.2824 41.3238C56.3408 38.3792 57.8276 35.79 59.7428 33.5562C61.7084 31.3223 64.0016 29.5708 66.6224 28.3015C69.2432 27.0323 72.0404 26.4231 75.0141 26.4738C78.1389 26.4738 80.9361 27.1338 83.4057 28.4538C85.9257 29.7738 87.9165 31.6015 89.3781 33.9369C90.8901 36.2215 91.6461 38.9123 91.6461 42.0092C91.6461 43.38 91.4445 44.8015 91.0413 46.2738C90.6885 47.7462 90.0837 49.32 89.2269 50.9954C88.4205 52.62 87.3369 54.3715 85.9761 56.25C84.6153 58.1285 82.9521 60.1592 80.9865 62.3423L69.2684 75.2123L67.6808 69.5008H93.9897V81H57.8528Z" fill="#1D9144"/>
<path d="M63.6562 97.3953V117.051H58.2922V101.427H51.1642V117.051H45.8002V97.3953H63.6562ZM66.6926 122.163L81.7046 91.8513H87.4286L72.4886 122.163H66.6926ZM104.196 97.3953V101.427H95.9884V117.051H90.6244V97.3953H104.196Z" fill="#1D9044"/>
</svg>
