<svg width="9" height="9" viewBox="0 0 9 9" fill="none" xmlns="http://www.w3.org/2000/svg">
<g clip-path="url(#clip0_50_20)">
<path d="M4.49888 8.99775C6.98355 8.99775 8.99775 6.98355 8.99775 4.49888C8.99775 2.01421 6.98355 0 4.49888 0C2.01421 0 0 2.01421 0 4.49888C0 6.98355 2.01421 8.99775 4.49888 8.99775Z" fill="#15720D"/>
<path d="M2.76366 5.84854C3.50906 5.84854 4.11333 5.24428 4.11333 4.49889C4.11333 3.7535 3.50906 3.14923 2.76366 3.14923C2.01827 3.14923 1.414 3.7535 1.414 4.49889C1.414 5.24428 2.01827 5.84854 2.76366 5.84854Z" fill="white" stroke="#15720D" stroke-width="0.6665"/>
<path d="M6.23411 5.84854C6.97949 5.84854 7.58376 5.24428 7.58376 4.49889C7.58376 3.7535 6.97949 3.14923 6.23411 3.14923C5.48869 3.14923 4.88443 3.7535 4.88443 4.49889C4.88443 5.24428 5.48869 5.84854 6.23411 5.84854Z" fill="white" stroke="#15720D" stroke-width="0.6665"/>
</g>
<defs>
<clipPath id="clip0_50_20">
<rect width="9" height="9" fill="white"/>
</clipPath>
</defs>
</svg>
