<svg width="10" height="10" viewBox="0 0 10 10" fill="none" xmlns="http://www.w3.org/2000/svg">
<g clip-path="url(#clip0_50_20)">
<path d="M4.99875 9.9975C7.7595 9.9975 9.9975 7.7595 9.9975 4.99875C9.9975 2.23802 7.7595 0 4.99875 0C2.23802 0 0 2.23802 0 4.99875C0 7.7595 2.23802 9.9975 4.99875 9.9975Z" fill="#15720D"/>
<path d="M3.07073 6.49838C3.89895 6.49838 4.57036 5.82698 4.57036 4.99877C4.57036 4.17055 3.89895 3.49915 3.07073 3.49915C2.24251 3.49915 1.57111 4.17055 1.57111 4.99877C1.57111 5.82698 2.24251 6.49838 3.07073 6.49838Z" fill="white" stroke="#15720D" stroke-width="0.6665"/>
<path d="M6.9268 6.49838C7.755 6.49838 8.4264 5.82698 8.4264 4.99877C8.4264 4.17055 7.755 3.49915 6.9268 3.49915C6.09855 3.49915 5.42715 4.17055 5.42715 4.99877C5.42715 5.82698 6.09855 6.49838 6.9268 6.49838Z" fill="white" stroke="#15720D" stroke-width="0.6665"/>
</g>
<defs>
<clipPath id="clip0_50_20">
<rect width="10" height="10" fill="white"/>
</clipPath>
</defs>
</svg>
