<svg width="12" height="12" viewBox="0 0 12 12" fill="none" xmlns="http://www.w3.org/2000/svg">
<g clip-path="url(#clip0_421_1974)">
<path d="M10.907 4.90472H7.09179V1.09264C7.09179 0.48923 6.60494 0 6.00153 0C5.39812 0 4.91153 0.48923 4.91153 1.0929V4.90736H1.09443C0.49102 4.90736 0.000468545 5.39659 0.000732851 6.00026C0.000468545 6.30184 0.122313 6.5783 0.31975 6.77574C0.51745 6.9737 0.790214 7.09872 1.09152 7.09872H4.91153V10.9079C4.91153 11.2097 5.03126 11.483 5.22896 11.6802C5.42666 11.8779 5.69863 12.0003 6.00047 12.0003C6.60361 12.0003 7.09179 11.511 7.09179 10.9079V7.09845H10.907C11.5104 7.09845 11.9997 6.605 11.9994 6.00159C11.9991 5.39844 11.5099 4.90472 10.907 4.90472Z" fill="black"/>
</g>
<defs>
<clipPath id="clip0_421_1974">
<rect width="12" height="12" fill="white"/>
</clipPath>
</defs>
</svg>
