<svg width="32" height="32" viewBox="0 0 32 32" fill="none" xmlns="http://www.w3.org/2000/svg">
<path fill-rule="evenodd" clip-rule="evenodd" d="M5.99905 11.973V15.502C5.99905 16.173 5.68733 16.8074 5.15277 17.2261C4.86119 17.4553 4.55033 17.6984 4.26219 17.9238L3.97545 18.1481C3.21934 18.7409 2.77881 19.6377 2.77881 20.5874C2.77881 21.5636 3.17554 22.5007 3.88013 23.1919C4.58601 23.8818 5.54306 24.2703 6.54005 24.2703H17.7291C17.7289 24.2522 17.7289 24.2341 17.7289 24.216C17.7289 23.5778 17.8211 22.961 17.9929 22.3784H6.54005C6.05444 22.3784 5.58944 22.1892 5.2468 21.8537C4.90417 21.5182 4.71095 21.0629 4.71095 20.5874C4.71095 20.2128 4.88485 19.8597 5.1824 19.6251C5.54178 19.3451 5.96814 19.0108 6.35972 18.7031C7.35284 17.9261 7.93119 16.7481 7.93119 15.502V11.973C7.93119 8.31533 10.9595 5.35136 14.6937 5.35136C18.4279 5.35136 21.4562 8.31659 21.4562 11.973V15.502C21.4562 16.4183 21.7689 17.2978 22.3293 18.008C22.9261 17.8269 23.5594 17.7296 24.2154 17.7296C24.4555 17.7296 24.6927 17.7426 24.9261 17.7681C24.697 17.5888 24.4601 17.4033 24.2346 17.2261C23.7001 16.8074 23.3884 16.173 23.3884 15.502V11.973C23.3884 7.271 19.4957 3.45947 14.6937 3.45947C9.89168 3.45947 5.99905 7.271 5.99905 11.973ZM16.1415 25.152C15.7151 25.3942 15.2205 25.5317 14.6936 25.5317C14.1668 25.5317 13.6722 25.3942 13.2458 25.152C12.7847 24.891 12.1922 25.0448 11.9255 25.4964C11.6589 25.9492 11.816 26.5281 12.2772 26.7892C12.9882 27.1928 13.8139 27.4236 14.6936 27.4236C15.5734 27.4236 16.3991 27.1928 17.1101 26.7892C17.5713 26.5281 17.7284 25.9492 17.4618 25.4964C17.1951 25.0448 16.6026 24.891 16.1415 25.152Z" fill="black"/>
<path d="M28.4591 23.2687H25.1595V19.9718C25.1595 19.45 24.7385 19.0269 24.2166 19.0269C23.6948 19.0269 23.2739 19.45 23.2739 19.972V23.271H19.9727C19.4509 23.271 19.0266 23.6941 19.0269 24.2162C19.0266 24.477 19.132 24.7161 19.3028 24.8868C19.4737 25.058 19.7096 25.1662 19.9702 25.1662H23.2739V28.4605C23.2739 28.7215 23.3775 28.9579 23.5485 29.1284C23.7194 29.2994 23.9547 29.4052 24.2157 29.4052C24.7373 29.4052 25.1595 28.9821 25.1595 28.4605V25.1659H28.4591C28.981 25.1659 29.4041 24.7392 29.4039 24.2173C29.4036 23.6957 28.9805 23.2687 28.4591 23.2687Z" fill="black"/>
</svg>
