<svg width="35" height="35" viewBox="0 0 35 35" fill="none" xmlns="http://www.w3.org/2000/svg">
<path d="M21.8749 3.64587C16.6528 3.64587 12.3958 7.90294 12.3958 13.125C12.3958 13.7684 12.529 14.3671 12.6521 14.9679L3.96619 23.6538C3.76107 23.8589 3.64581 24.1371 3.64575 24.4271V30.2605C3.64578 30.5505 3.76102 30.8287 3.96614 31.0338C4.17125 31.2389 4.44943 31.3542 4.7395 31.3542H10.5728C10.8629 31.3542 11.1411 31.2389 11.3462 31.0338C11.5513 30.8287 11.6666 30.5505 11.6666 30.2605V28.4375H14.2187C14.5087 28.4375 14.7869 28.3223 14.992 28.1172C15.1971 27.912 15.3124 27.6339 15.3124 27.3438V24.7917H17.8645C18.1546 24.7917 18.4328 24.6764 18.6379 24.4713C18.843 24.2662 18.9582 23.988 18.9583 23.698V22.0901C19.8851 22.3923 20.851 22.6042 21.8749 22.6042C27.097 22.6042 31.3541 18.3471 31.3541 13.125C31.3541 7.90294 27.097 3.64587 21.8749 3.64587ZM21.8749 5.83337C25.9147 5.83337 29.1666 9.08527 29.1666 13.125C29.1666 17.1648 25.9147 20.4167 21.8749 20.4167C20.608 20.4167 19.4243 20.0963 18.3886 19.5309C18.222 19.44 18.0347 19.394 17.8449 19.3974C17.6552 19.4008 17.4697 19.4535 17.3065 19.5503C17.1433 19.6472 17.0081 19.7848 16.9141 19.9497C16.8202 20.1145 16.7708 20.301 16.7708 20.4908V22.6042H14.2187C13.9286 22.6042 13.6504 22.7195 13.4453 22.9246C13.2402 23.1297 13.1249 23.4079 13.1249 23.698V26.25H10.5728C10.2828 26.2501 10.0046 26.3653 9.79947 26.5704C9.59436 26.7755 9.47911 27.0537 9.47908 27.3438V29.1667H5.83325V24.88L14.5747 16.1385C14.7118 16.0015 14.81 15.8306 14.8593 15.6432C14.9086 15.4557 14.9072 15.2586 14.8553 15.0719C14.6809 14.4442 14.5833 13.7956 14.5833 13.125C14.5833 9.08527 17.8351 5.83337 21.8749 5.83337ZM23.3333 9.47921C22.7531 9.47921 22.1967 9.70967 21.7865 10.1199C21.3762 10.5301 21.1458 11.0865 21.1458 11.6667C21.1458 12.2469 21.3762 12.8033 21.7865 13.2135C22.1967 13.6237 22.7531 13.8542 23.3333 13.8542C23.9134 13.8542 24.4698 13.6237 24.88 13.2135C25.2903 12.8033 25.5208 12.2469 25.5208 11.6667C25.5208 11.0865 25.2903 10.5301 24.88 10.1199C24.4698 9.70967 23.9134 9.47921 23.3333 9.47921Z" fill="black"/>
</svg>
