<svg width="18" height="18" viewBox="0 0 18 18" fill="none" xmlns="http://www.w3.org/2000/svg">
<path d="M11.25 1.875C8.56435 1.875 6.375 4.06435 6.375 6.75C6.375 7.08088 6.44353 7.38875 6.50683 7.69775L2.03979 12.1648C1.93431 12.2703 1.87503 12.4133 1.875 12.5625V15.5625C1.87501 15.7117 1.93428 15.8547 2.03977 15.9602C2.14525 16.0657 2.28832 16.125 2.4375 16.125H5.4375C5.58668 16.125 5.72974 16.0657 5.83523 15.9602C5.94072 15.8547 5.99998 15.7117 6 15.5625V14.625H7.3125C7.46168 14.625 7.60474 14.5657 7.71023 14.4602C7.81572 14.3547 7.87498 14.2117 7.875 14.0625V12.75H9.1875C9.33668 12.75 9.47974 12.6907 9.58523 12.5852C9.69072 12.4797 9.74998 12.3367 9.75 12.1875V11.3606C10.2267 11.516 10.7234 11.625 11.25 11.625C13.9356 11.625 16.125 9.43565 16.125 6.75C16.125 4.06435 13.9356 1.875 11.25 1.875ZM11.25 3C13.3276 3 15 4.6724 15 6.75C15 8.8276 13.3276 10.5 11.25 10.5C10.5984 10.5 9.9897 10.3352 9.45703 10.0444C9.37137 9.99769 9.27502 9.97403 9.17744 9.97578C9.07987 9.97754 8.98443 10.0046 8.90051 10.0544C8.81658 10.1042 8.74705 10.175 8.69874 10.2598C8.65044 10.3446 8.62503 10.4405 8.625 10.5381V11.625H7.3125C7.16332 11.625 7.02025 11.6843 6.91477 11.7898C6.80928 11.8953 6.75001 12.0383 6.75 12.1875V13.5H5.4375C5.28832 13.5 5.14525 13.5593 5.03977 13.6648C4.93428 13.7703 4.87501 13.9133 4.875 14.0625V15H3V12.7954L7.4956 8.2998C7.5661 8.22934 7.6166 8.14142 7.64195 8.04503C7.6673 7.94864 7.66659 7.84724 7.63989 7.75122C7.5502 7.42841 7.5 7.09487 7.5 6.75C7.5 4.6724 9.1724 3 11.25 3ZM12 4.875C11.7016 4.875 11.4155 4.99353 11.2045 5.2045C10.9935 5.41548 10.875 5.70163 10.875 6C10.875 6.29837 10.9935 6.58452 11.2045 6.79549C11.4155 7.00647 11.7016 7.125 12 7.125C12.2984 7.125 12.5845 7.00647 12.7955 6.79549C13.0065 6.58452 13.125 6.29837 13.125 6C13.125 5.70163 13.0065 5.41548 12.7955 5.2045C12.5845 4.99353 12.2984 4.875 12 4.875Z" fill="black"/>
</svg>
