<svg width="29" height="29" viewBox="0 0 29 29" fill="none" xmlns="http://www.w3.org/2000/svg">
<g clip-path="url(#clip0_182_1117)">
<path d="M8.50899 7.66142C8.39756 7.77954 8.33647 7.93639 8.33865 8.09876L8.33865 10.3798C8.3312 10.4352 8.3312 10.4913 8.33865 10.5467V10.7504C8.33869 10.9161 8.40454 11.0751 8.52173 11.1923C8.63892 11.3095 8.79786 11.3753 8.96359 11.3753H11.6152C11.6984 11.377 11.781 11.3621 11.8583 11.3315C11.9356 11.3008 12.006 11.2551 12.0654 11.1969C12.1248 11.1387 12.172 11.0692 12.2042 10.9925C12.2364 10.9159 12.253 10.8336 12.253 10.7504C12.253 10.6673 12.2364 10.5849 12.2042 10.5083C12.172 10.4316 12.1248 10.3622 12.0654 10.304C12.006 10.2458 11.9356 10.2 11.8583 10.1694C11.781 10.1387 11.6984 10.1238 11.6152 10.1255H10.1973C12.654 7.87113 16.4526 7.92743 18.8336 10.3085C20.3291 11.804 20.9012 13.8591 20.568 15.7936C20.5541 15.8745 20.5562 15.9574 20.5742 16.0375C20.5923 16.1175 20.626 16.1933 20.6733 16.2603C20.7207 16.3274 20.7808 16.3845 20.8502 16.4283C20.9196 16.4722 20.9969 16.5019 21.0778 16.5159C21.1587 16.5298 21.2416 16.5277 21.3217 16.5096C21.4018 16.4915 21.4775 16.4578 21.5446 16.4105C21.6116 16.3631 21.6687 16.303 21.7125 16.2336C21.7564 16.1642 21.7861 16.0869 21.8 16.006C22.1993 13.6878 21.5059 11.213 19.7175 9.42459C16.9471 6.65423 12.5318 6.51337 9.58852 8.993L9.58852 8.09876C9.59018 7.97291 9.55381 7.84949 9.48417 7.74465C9.41453 7.63981 9.31486 7.55843 9.19821 7.51118C9.08155 7.46392 8.95335 7.45298 8.83038 7.47978C8.7074 7.50659 8.59539 7.5699 8.50899 7.66142ZM7.22229 13.0879C7.11873 13.1832 7.0504 13.3108 7.02837 13.4498C6.62911 15.7679 7.3225 18.2428 9.1109 20.0312C11.8813 22.8015 16.2966 22.9424 19.2399 20.4628V21.357C19.2382 21.4402 19.2531 21.5228 19.2838 21.6001C19.3144 21.6774 19.3602 21.7478 19.4184 21.8072C19.4766 21.8666 19.546 21.9138 19.6227 21.946C19.6993 21.9782 19.7817 21.9948 19.8648 21.9948C19.948 21.9948 20.0303 21.9782 20.1069 21.946C20.1836 21.9138 20.2531 21.8666 20.3113 21.8072C20.3695 21.7478 20.4152 21.6774 20.4459 21.6001C20.4765 21.5228 20.4914 21.4402 20.4897 21.357V19.076C20.4972 19.0206 20.4972 18.9644 20.4897 18.9091V18.7054C20.4897 18.5396 20.4239 18.3807 20.3067 18.2635C20.1895 18.1463 20.0305 18.0805 19.8648 18.0804H17.2132C17.1295 18.0792 17.0465 18.0948 16.969 18.1262C16.8916 18.1576 16.8212 18.2043 16.762 18.2634C16.6741 18.3514 16.6144 18.4636 16.5906 18.5857C16.5668 18.7078 16.58 18.8342 16.6284 18.9487C16.6769 19.0633 16.7584 19.1608 16.8625 19.2288C16.9667 19.2968 17.0888 19.3321 17.2132 19.3303H18.6311C16.1744 21.5846 12.3758 21.5283 9.99478 19.1473C8.49927 17.6518 7.9272 15.5967 8.26039 13.6622C8.28449 13.5331 8.26733 13.3997 8.21135 13.281C8.15537 13.1622 8.06341 13.0641 7.94852 13.0005C7.83364 12.937 7.70165 12.9112 7.5713 12.9269C7.44094 12.9425 7.31883 12.9989 7.22229 13.0879Z" fill="#757575"/>
</g>
<defs>
<clipPath id="clip0_182_1117">
<rect width="20" height="20" fill="white" transform="translate(0.272095 14.7279) rotate(-45)"/>
</clipPath>
</defs>
</svg>
