<svg width="15" height="15" viewBox="0 0 15 15" fill="none" xmlns="http://www.w3.org/2000/svg">
<g clip-path="url(#clip0_293_448)">
<path d="M4.11857 3.53787C4.06285 3.59693 4.03231 3.67535 4.0334 3.75653L4.0334 4.89707C4.02967 4.92475 4.02967 4.95282 4.0334 4.98051V5.08236C4.03342 5.16523 4.06634 5.24469 4.12494 5.30329C4.18354 5.36188 4.263 5.39481 4.34587 5.39483H5.67169C5.71326 5.39567 5.75458 5.38821 5.79323 5.37289C5.83188 5.35757 5.86709 5.33469 5.89678 5.30559C5.92648 5.27649 5.95007 5.24176 5.96618 5.20343C5.98228 5.1651 5.99058 5.12394 5.99058 5.08236C5.99058 5.04078 5.98228 4.99962 5.96618 4.96129C5.95007 4.92296 5.92648 4.88823 5.89678 4.85913C5.86709 4.83003 5.83188 4.80715 5.79323 4.79183C5.75458 4.77651 5.71326 4.76905 5.67169 4.76989H4.96275C6.19109 3.64272 8.09036 3.67087 9.28088 4.86139C10.0286 5.60915 10.3147 6.63669 10.1481 7.60396C10.1411 7.64441 10.1422 7.68584 10.1512 7.72588C10.1602 7.76592 10.1771 7.80379 10.2007 7.83732C10.2244 7.87086 10.2545 7.8994 10.2892 7.92132C10.3239 7.94325 10.3625 7.95812 10.403 7.96509C10.4434 7.97206 10.4849 7.971 10.5249 7.96196C10.565 7.95292 10.6028 7.93608 10.6364 7.9124C10.6699 7.88873 10.6984 7.85868 10.7203 7.82397C10.7423 7.78927 10.7571 7.75058 10.7641 7.71013C10.9637 6.55107 10.617 5.31365 9.72283 4.41945C8.33765 3.03427 6.12997 2.96384 4.65833 4.20366L4.65833 3.75653C4.65917 3.69361 4.64098 3.6319 4.60616 3.57948C4.57134 3.52706 4.52151 3.48637 4.46318 3.46274C4.40485 3.43911 4.34075 3.43364 4.27926 3.44705C4.21778 3.46045 4.16177 3.4921 4.11857 3.53787ZM3.47522 6.25109C3.42344 6.29877 3.38928 6.36254 3.37826 6.43207C3.17863 7.59113 3.52532 8.82855 4.41953 9.72275C5.8047 11.1079 8.01238 11.1784 9.48402 9.93854V10.3857C9.48317 10.4272 9.49063 10.4685 9.50595 10.5072C9.52127 10.5458 9.54416 10.5811 9.57325 10.6107C9.60235 10.6404 9.63709 10.664 9.67542 10.6801C9.71375 10.6962 9.75491 10.7045 9.79648 10.7045C9.83806 10.7045 9.87922 10.6962 9.91755 10.6801C9.95588 10.664 9.99061 10.6404 10.0197 10.6107C10.0488 10.5811 10.0717 10.5458 10.087 10.5072C10.1023 10.4685 10.1098 10.4272 10.1089 10.3857V9.24513C10.1127 9.21744 10.1127 9.18938 10.1089 9.16169V9.05984C10.1089 8.97697 10.076 8.8975 10.0174 8.83891C9.95882 8.78031 9.87935 8.74739 9.79648 8.74737H8.47066C8.42885 8.74675 8.38734 8.75454 8.3486 8.77025C8.30985 8.78597 8.27465 8.8093 8.24508 8.83886C8.20112 8.88285 8.17128 8.93896 8.15937 9C8.14747 9.06104 8.15406 9.12425 8.17828 9.18153C8.2025 9.23881 8.24326 9.28756 8.29535 9.32155C8.34743 9.35553 8.40847 9.3732 8.47066 9.3723H9.17961C7.95126 10.4995 6.05199 10.4713 4.86147 9.28081C4.11371 8.53305 3.82768 7.5055 3.99427 6.53824C4.00632 6.4737 3.99774 6.40701 3.96975 6.34763C3.94176 6.28825 3.89578 6.23919 3.83834 6.20741C3.78089 6.17563 3.7149 6.16275 3.64972 6.17059C3.58454 6.17843 3.52349 6.20659 3.47522 6.25109Z" fill="#757575"/>
</g>
<defs>
<clipPath id="clip0_293_448">
<rect width="10" height="10" fill="white" transform="translate(0 7.07104) rotate(-45)"/>
</clipPath>
</defs>
</svg>
