<svg width="7" height="8" viewBox="0 0 7 8" fill="none" xmlns="http://www.w3.org/2000/svg">
<path d="M0.706686 0.47695C0.656543 0.530104 0.629053 0.600686 0.630037 0.673752L0.630037 1.70023C0.626681 1.72515 0.626681 1.75041 0.630037 1.77533V1.86699C0.630053 1.94157 0.659686 2.01309 0.712422 2.06583C0.765157 2.11857 0.836678 2.1482 0.911257 2.14821H2.1045C2.14191 2.14898 2.1791 2.14226 2.21388 2.12847C2.24867 2.11468 2.28035 2.09409 2.30708 2.0679C2.33381 2.04171 2.35504 2.01045 2.36953 1.97595C2.38403 1.94146 2.3915 1.90441 2.3915 1.86699C2.3915 1.82958 2.38403 1.79253 2.36953 1.75804C2.35504 1.72354 2.33381 1.69228 2.30708 1.66609C2.28035 1.6399 2.24867 1.61931 2.21388 1.60552C2.1791 1.59173 2.14191 1.58501 2.1045 1.58577H1.46645C2.57196 0.571317 4.2813 0.596653 5.35277 1.66812C6.02576 2.3411 6.28318 3.26589 6.13325 4.13643C6.12697 4.17284 6.12792 4.21013 6.13605 4.24616C6.14419 4.2822 6.15934 4.31628 6.18064 4.34646C6.20194 4.37664 6.22899 4.40233 6.26022 4.42206C6.29145 4.44179 6.32627 4.45518 6.36267 4.46145C6.39908 4.46773 6.43636 4.46677 6.4724 4.45863C6.50843 4.4505 6.54252 4.43534 6.57269 4.41403C6.60287 4.39272 6.62856 4.36568 6.64828 4.33445C6.66801 4.30321 6.68139 4.26839 6.68766 4.23199C6.86733 3.18883 6.5553 2.07515 5.75052 1.27037C4.50386 0.023712 2.51695 -0.0396765 1.19248 1.07616L1.19248 0.673752C1.19323 0.617119 1.17686 0.561579 1.14552 0.514401C1.11418 0.467222 1.06933 0.430604 1.01684 0.409338C0.964342 0.388072 0.906651 0.383148 0.851313 0.395212C0.795974 0.407275 0.745566 0.435764 0.706686 0.47695ZM0.127674 2.91885C0.0810724 2.96177 0.0503235 3.01916 0.0404075 3.08173C-0.139258 4.12489 0.172767 5.23856 0.977548 6.04334C2.22421 7.29001 4.21112 7.35339 5.53559 6.23756V6.63997C5.53483 6.67738 5.54154 6.71456 5.55533 6.74935C5.56912 6.78414 5.58972 6.81582 5.61591 6.84255C5.64209 6.86927 5.67335 6.89051 5.70785 6.905C5.74235 6.9195 5.77939 6.92696 5.81681 6.92696C5.85423 6.92696 5.89127 6.9195 5.92577 6.905C5.96027 6.89051 5.99153 6.86927 6.01772 6.84255C6.0439 6.81582 6.0645 6.78413 6.07829 6.74935C6.09208 6.71456 6.09879 6.67738 6.09803 6.63997V5.61349C6.10139 5.58857 6.10139 5.56331 6.09803 5.53839V5.44672C6.09801 5.37214 6.06838 5.30062 6.01565 5.24789C5.96291 5.19515 5.89139 5.16552 5.81681 5.1655H4.62357C4.58594 5.16495 4.54858 5.17195 4.51371 5.1861C4.47884 5.20024 4.44716 5.22124 4.42055 5.24785C4.38098 5.28744 4.35412 5.33793 4.34341 5.39287C4.3327 5.44781 4.33863 5.50469 4.36043 5.55625C4.38223 5.6078 4.41891 5.65168 4.46579 5.68226C4.51266 5.71285 4.5676 5.72875 4.62357 5.72794H5.26162C4.15611 6.7424 2.44676 6.71707 1.3753 5.6456C0.702312 4.97261 0.444885 4.04782 0.59482 3.17728C0.605663 3.1192 0.597941 3.05918 0.57275 3.00574C0.547559 2.95229 0.506179 2.90814 0.454479 2.87954C0.402779 2.85094 0.343386 2.83934 0.284726 2.8464C0.226065 2.85346 0.171116 2.87881 0.127674 2.91885Z" fill="#757575"/>
</svg>
