<svg width="22" height="22" viewBox="0 0 22 22" fill="none" xmlns="http://www.w3.org/2000/svg">
<path d="M9.39586 1.83331C9.28513 1.83189 9.1757 1.85724 9.07687 1.9072C8.97804 1.95716 8.89274 2.03025 8.82822 2.12025C8.76371 2.21026 8.72188 2.31451 8.70632 2.42415C8.69075 2.53379 8.70189 2.64557 8.7388 2.74998H6.71031C5.86824 2.74998 5.0797 3.17139 4.6129 3.87253L3.52794 5.49998H3.43753C3.34642 5.49869 3.25597 5.51552 3.17143 5.54949C3.08689 5.58346 3.00995 5.6339 2.94507 5.69787C2.88019 5.76183 2.82867 5.83806 2.79351 5.92211C2.75834 6.00616 2.74023 6.09636 2.74023 6.18748C2.74023 6.27859 2.75834 6.36879 2.79351 6.45284C2.82867 6.53689 2.88019 6.61312 2.94507 6.67709C3.00995 6.74105 3.08689 6.79149 3.17143 6.82546C3.25597 6.85943 3.34642 6.87626 3.43753 6.87498H3.78754C3.84652 6.88389 3.9064 6.88509 3.96568 6.87856L5.09898 17.456C5.23573 18.7313 6.32312 19.7083 7.6055 19.7083H14.3937C15.676 19.7083 16.7634 18.7313 16.9002 17.456L18.0344 6.87856C18.0925 6.88479 18.1511 6.88358 18.2089 6.87498H18.5625C18.6536 6.87626 18.7441 6.85943 18.8286 6.82546C18.9132 6.79149 18.9901 6.74105 19.055 6.67709C19.1199 6.61312 19.1714 6.53689 19.2065 6.45284C19.2417 6.36879 19.2598 6.27859 19.2598 6.18748C19.2598 6.09636 19.2417 6.00616 19.2065 5.92211C19.1714 5.83806 19.1199 5.76183 19.055 5.69787C18.9901 5.6339 18.9132 5.58346 18.8286 5.54949C18.7441 5.51552 18.6536 5.49869 18.5625 5.49998H18.4721L17.3872 3.87253C16.92 3.17177 16.1315 2.74998 15.2897 2.74998H13.2613C13.2982 2.64557 13.3093 2.53379 13.2937 2.42415C13.2782 2.31451 13.2363 2.21026 13.1718 2.12025C13.1073 2.03025 13.022 1.95716 12.9232 1.9072C12.8244 1.85724 12.7149 1.83189 12.6042 1.83331H9.39586ZM6.71031 4.12498H15.2897C15.6735 4.12498 16.0301 4.31574 16.2431 4.63523L16.8196 5.49998H5.18045L5.75694 4.63523L5.75784 4.63433C5.97027 4.31525 6.32589 4.12498 6.71031 4.12498ZM5.34874 6.87498H16.6513L15.5332 17.3092C15.4701 17.8976 14.985 18.3333 14.3937 18.3333H7.6055C7.01421 18.3333 6.52991 17.8976 6.46682 17.3092L5.34874 6.87498Z" fill="#CB2121"/>
</svg>
