<svg width="48" height="48" viewBox="0 0 48 48" fill="none" xmlns="http://www.w3.org/2000/svg">
<path d="M36.0001 5.00977C34.2054 5.00977 32.4108 5.69014 31.0508 7.05078L8.91607 29.1836C8.49609 29.6036 8.18851 30.1258 8.02545 30.6992L5.05865 41.0879C4.98548 41.345 4.98232 41.6169 5.04949 41.8756C5.11667 42.1343 5.25174 42.3703 5.44073 42.5593C5.62972 42.7483 5.86577 42.8834 6.12446 42.9506C6.38316 43.0177 6.6551 43.0146 6.91216 42.9414L17.3028 39.9746L17.3047 39.9727C17.8743 39.8089 18.3953 39.5052 18.8165 39.084L40.9493 16.9492C43.6704 14.2281 43.6704 9.77191 40.9493 7.05078C39.5893 5.69014 37.7948 5.00977 36.0001 5.00977ZM36.0001 7.99219C37.0209 7.99219 38.0402 8.38552 38.8262 9.17188H38.8282C40.4031 10.7467 40.4031 13.2533 38.8282 14.8281L36.8887 16.7676L31.2325 11.1113L33.1719 9.17188C33.9579 8.38552 34.9793 7.99219 36.0001 7.99219ZM29.1114 13.2324L34.7676 18.8887L16.6934 36.9629C16.6348 37.0211 16.5605 37.0657 16.4766 37.0898L8.68365 39.3164L10.9102 31.5215V31.5195C10.9331 31.4389 10.9751 31.3667 11.0372 31.3047L29.1114 13.2324Z" fill="white"/>
</svg>
