<svg width="10" height="10" viewBox="0 0 10 10" fill="none" xmlns="http://www.w3.org/2000/svg">
<g clip-path="url(#clip0_50_36)">
<path d="M5 10C7.76142 10 10 7.76142 10 5C10 2.23858 7.76142 0 5 0C2.23858 0 0 2.23858 0 5C0 7.76142 2.23858 10 5 10Z" fill="#0966BB"/>
<mask id="mask0_50_36" style="mask-type:alpha" maskUnits="userSpaceOnUse" x="0" y="0" width="10" height="10">
<path d="M5 9.5C7.48528 9.5 9.5 7.48528 9.5 5C9.5 2.51472 7.48528 0.5 5 0.5C2.51472 0.5 0.5 2.51472 0.5 5C0.5 7.48528 2.51472 9.5 5 9.5Z" fill="#0068B1"/>
</mask>
<g mask="url(#mask0_50_36)">
<path d="M8.54519 1.38813L4.92372 -2.23334L-2.19265 4.88303L1.42882 8.5045L8.54519 1.38813Z" fill="white"/>
</g>
</g>
<defs>
<clipPath id="clip0_50_36">
<rect width="10" height="10" fill="white"/>
</clipPath>
</defs>
</svg>
