<svg width="69" height="69" viewBox="0 0 69 69" fill="none" xmlns="http://www.w3.org/2000/svg">
<path fill-rule="evenodd" clip-rule="evenodd" d="M39.3511 34.6781C39.3511 37.6003 36.9833 39.9671 34.0599 39.9671C31.1399 39.9671 28.7688 37.6003 28.7688 34.6781C28.7688 31.7593 31.1399 29.3857 34.0599 29.3857C36.9833 29.3857 39.3511 31.7593 39.3511 34.6781ZM23.9792 24.3483C24.6345 23.2088 25.305 22.0996 25.9873 21.0192C25.2695 20.9568 24.5636 20.9281 23.8779 20.9281C19.2708 20.9281 15.9218 22.3579 14.7075 24.8564C14.2076 25.8777 14.0725 27.0392 14.26 28.2867C17.1276 26.8501 20.3989 25.5182 23.9776 24.35L23.9792 24.3483ZM28.0291 21.2657C27.5444 22.0068 27.0715 22.7648 26.602 23.5363C28.0392 23.1142 29.5119 22.7243 31.0285 22.3647C32.236 22.6787 33.4655 23.0636 34.6882 23.5126C33.8235 23.6899 32.9571 23.8756 32.0823 24.0748C25.2003 25.6684 19.3468 27.8191 14.7548 30.1488C15.4168 31.9315 16.6328 33.8205 18.2912 35.6792C19.3822 33.1351 20.6235 30.532 22.0134 27.9035L22.287 27.3937C23.1129 27.1067 23.9624 26.8316 24.8338 26.5648C24.4285 27.2857 24.0248 28.0183 23.6313 28.7611C20.1439 35.3584 17.7136 41.5573 16.2275 46.9746C17.2627 47.0405 18.3503 47.0759 19.4819 47.0759C22.4576 47.0759 25.6546 46.8345 28.9461 46.3905C30.0439 46.9139 31.1501 47.3882 32.2529 47.812C27.7977 48.5818 23.4557 48.9869 19.4802 48.9869C9.27113 48.9869 2.83496 46.4631 1.81321 42.0655C0.889413 38.0595 4.93925 33.4339 12.0949 29.4279C12.2114 30.039 12.3887 30.662 12.6218 31.2933C6.30552 34.9009 3.02073 38.7888 3.676 41.6367C4.29749 44.3073 8.25613 46.1728 14.3714 46.821C15.15 43.9241 16.1819 40.8584 17.4586 37.6796C12.9731 32.9731 11.0968 27.8934 12.9883 24.014C14.5589 20.793 18.4263 19.0171 23.8762 19.0171C27.5461 19.0171 31.6685 19.8392 35.8028 21.3602C40.5822 20.4858 45.2603 20.0215 49.5111 20.0215C50.8251 20.0215 52.0714 20.0604 53.2536 20.1414C55.5302 10.7299 54.7584 4.02288 51.5242 2.30771C50.9314 1.99371 50.2475 1.83671 49.4976 1.83671C44.3534 1.83671 36.5054 8.81386 29.4528 19.115C28.7671 18.9816 28.0916 18.8736 27.4262 18.7875C35.0259 7.38737 43.487 0 49.501 0H49.55C50.5886 0.00675262 51.5411 0.236342 52.3889 0.682015C56.6718 2.94414 57.4419 10.4649 55.1063 20.3051C62.0542 21.0817 66.3641 23.4063 67.1815 26.9396C67.9854 30.3936 65.1971 34.3692 59.3301 38.1405C58.4485 38.706 57.5129 39.2564 56.5283 39.7932C56.9336 41.6839 56.7664 43.4464 56.0115 44.9944C54.4358 48.212 50.57 49.9914 45.1218 49.9914C44.3095 49.9914 43.4718 49.9357 42.6173 49.858C43.004 49.257 43.384 48.651 43.7657 48.0331C44.2234 48.0567 44.6794 48.0821 45.1218 48.0821C49.7358 48.0821 53.078 46.6488 54.2956 44.152C55.5014 41.6975 54.6689 38.3684 51.9616 34.7895C51.5749 34.2797 51.1561 33.7716 50.7068 33.2685C49.6057 35.8699 48.3627 38.5119 46.9931 41.1032L46.4172 42.1701C49.0855 41.2214 51.5833 40.173 53.8498 39.042C54.1014 39.6784 54.2821 40.3047 54.3818 40.904C49.4959 43.2995 43.6323 45.3388 37.3464 46.7889L36.9935 46.8717C38.3445 47.2447 39.6787 47.5368 40.9774 47.736L42.0127 46.0968C42.9128 45.825 43.8029 45.5448 44.6777 45.2476C36.3669 59.4248 26.3419 69 19.4987 69C18.4449 69 17.4755 68.7721 16.6108 68.3214C12.463 66.1251 11.6068 58.9909 13.6874 49.593C14.2853 49.6487 14.9017 49.6909 15.5367 49.7229C13.5135 58.6837 14.3343 65.0345 17.4688 66.6957C18.0615 67.0097 18.7421 67.17 19.4954 67.17C24.7071 67.17 32.7038 60.0021 39.829 49.4731C36.3027 48.8316 32.5822 47.6026 28.9647 45.8402C25.1868 43.995 21.902 41.792 19.2691 39.4319C19.5207 38.7955 19.7926 38.1489 20.0611 37.5041C22.6569 39.9485 25.9839 42.263 29.8024 44.125C30.9846 44.7041 32.1803 45.2189 33.3709 45.6764C34.5463 45.4536 35.7285 45.2054 36.9107 44.932C39.2886 44.3799 41.6023 43.7503 43.8214 43.0446C44.3483 42.1279 44.8601 41.1961 45.36 40.2473C46.8563 37.423 48.1753 34.5785 49.3152 31.8319C46.6148 29.2102 43.1307 26.8113 39.1923 24.8851C35.4532 23.0602 31.6094 21.8228 28.0274 21.2674L28.0291 21.2657ZM55.9574 37.9278C56.7731 37.4737 57.5585 37.0111 58.2948 36.5334C63.3563 33.282 65.9132 29.9445 65.3153 27.3701C64.5418 24.014 58.4856 21.9308 49.5111 21.9308C46.2652 21.9308 42.7507 22.2094 39.1315 22.7395L40.0266 23.1666C43.8772 25.0438 47.3224 27.3684 50.082 29.9243C51.1105 27.2857 51.9667 24.7686 52.6287 22.466C53.2654 22.5217 53.8835 22.5808 54.4814 22.6584C53.7147 25.3527 52.7115 28.2935 51.4989 31.3187C52.2234 32.0817 52.8837 32.8566 53.4765 33.6399C54.5793 35.0985 55.4052 36.5368 55.9524 37.9261L55.9574 37.9278Z" fill="#0966BB"/>
</svg>
