<svg width="30" height="30" viewBox="0 0 30 30" fill="none" xmlns="http://www.w3.org/2000/svg">
<path fill-rule="evenodd" clip-rule="evenodd" d="M17.2173 15.0774C17.2173 16.348 16.135 17.377 14.7988 17.377C13.4642 17.377 12.3804 16.348 12.3804 15.0774C12.3804 13.8084 13.4642 12.7764 14.7988 12.7764C16.135 12.7764 17.2173 13.8084 17.2173 15.0774ZM10.1912 10.5862C10.4907 10.0908 10.7971 9.60854 11.109 9.13879C10.7809 9.11164 10.4582 9.09916 10.1448 9.09916C8.039 9.09916 6.50826 9.72084 5.95324 10.8071C5.72475 11.2512 5.66299 11.7562 5.74868 12.2986C7.05942 11.674 8.55466 11.0949 10.1904 10.5869L10.1912 10.5862ZM12.0423 9.24596C11.8207 9.56817 11.6046 9.89773 11.39 10.2332C12.0469 10.0497 12.72 9.88012 13.4132 9.72378C13.9651 9.8603 14.5271 10.0276 15.086 10.2229C14.6908 10.3 14.2948 10.3807 13.8949 10.4673C10.7493 11.1602 8.07374 12.0953 5.97485 13.1082C6.27745 13.8832 6.83324 14.7046 7.59128 15.5127C8.08995 14.4066 8.65732 13.2748 9.29262 12.132L9.41768 11.9103C9.79515 11.7855 10.1834 11.6659 10.5818 11.5499C10.3965 11.8633 10.212 12.1819 10.0321 12.5048C8.43809 15.3732 7.32728 18.0684 6.64798 20.4238C7.12117 20.4524 7.6183 20.4678 8.1355 20.4678C9.49564 20.4678 10.9569 20.3628 12.4614 20.1698C12.9632 20.3973 13.4688 20.6036 13.9729 20.7878C11.9365 21.1225 9.95186 21.2987 8.13472 21.2987C3.46838 21.2987 0.526543 20.2014 0.0595232 18.2893C-0.362725 16.5476 1.48837 14.5365 4.75906 12.7948C4.81232 13.0605 4.89337 13.3313 4.9999 13.6058C2.11287 15.1743 0.611456 16.8647 0.910966 18.1029C1.19504 19.2641 3.00445 20.0751 5.79962 20.357C6.15548 19.0974 6.62714 17.7645 7.21072 16.3825C5.16046 14.3361 4.30284 12.1276 5.16741 10.4409C5.88531 9.04044 7.65304 8.26829 10.1441 8.26829C11.8215 8.26829 13.7058 8.62574 15.5955 9.28706C17.78 8.90686 19.9183 8.70501 21.8613 8.70501C22.4618 8.70501 23.0315 8.72189 23.5719 8.75713C24.6124 4.66518 24.2597 1.74908 22.7814 1.00335C22.5104 0.866831 22.1978 0.798571 21.8551 0.798571C19.5038 0.798571 15.9166 3.83211 12.693 8.31087C12.3796 8.25288 12.0708 8.20591 11.7667 8.16847C15.2404 3.2119 19.1078 0 21.8566 0H21.879C22.3537 0.00293592 22.7891 0.102757 23.1766 0.296528C25.1343 1.28006 25.4863 4.54995 24.4187 8.82832C27.5944 9.16595 29.5644 10.1766 29.938 11.7129C30.3054 13.2146 29.031 14.9431 26.3493 16.5828C25.9463 16.8287 25.5187 17.068 25.0686 17.3014C25.2539 18.1235 25.1775 18.8897 24.8324 19.5628C24.1122 20.9618 22.3453 21.7354 19.855 21.7354C19.4837 21.7354 19.1008 21.7112 18.7102 21.6774C18.887 21.4161 19.0607 21.1526 19.2351 20.884C19.4443 20.8942 19.6527 20.9052 19.855 20.9052C21.9639 20.9052 23.4916 20.2821 24.0481 19.1965C24.5993 18.1293 24.2187 16.6819 22.9813 15.1259C22.8046 14.9042 22.6131 14.6833 22.4078 14.4646C21.9045 15.5956 21.3363 16.7443 20.7103 17.871L20.4471 18.3348C21.6667 17.9223 22.8084 17.4665 23.8443 16.9748C23.9594 17.2515 24.042 17.5238 24.0875 17.7844C21.8543 18.8259 19.1741 19.7125 16.301 20.343L16.1397 20.379C16.7572 20.5412 17.3671 20.6682 17.9607 20.7548L18.4339 20.0421C18.8453 19.9239 19.2521 19.8021 19.652 19.6729C15.8533 25.8369 11.2711 30 8.14321 30C7.66153 30 7.21844 29.9009 6.82321 29.7049C4.92734 28.75 4.53597 25.6482 5.48699 21.5622C5.76025 21.5864 6.04201 21.6047 6.33226 21.6187C5.40748 25.5146 5.78264 28.2759 7.21535 28.9981C7.4863 29.1346 7.79739 29.2044 8.14167 29.2044C10.5239 29.2044 14.179 26.0879 17.4358 21.51C15.824 21.2311 14.1234 20.6968 12.4699 19.9305C10.7431 19.1283 9.24168 18.1704 8.03823 17.1443C8.15325 16.8676 8.27753 16.5865 8.40027 16.3061C9.58673 17.3689 11.1074 18.3752 12.8528 19.1848C13.3931 19.4365 13.9397 19.6604 14.4839 19.8593C15.0211 19.7624 15.5615 19.6545 16.1019 19.5356C17.1887 19.2956 18.2463 19.0218 19.2606 18.715C19.5014 18.3165 19.7353 17.9113 19.9638 17.4988C20.6478 16.2709 21.2507 15.0341 21.7717 13.8399C20.5374 12.7001 18.9449 11.6571 17.1447 10.8196C15.4357 10.0262 13.6788 9.48817 12.0415 9.24669L12.0423 9.24596ZM24.8077 16.4903C25.1806 16.2929 25.5395 16.0918 25.8761 15.8841C28.1896 14.4704 29.3583 13.0194 29.085 11.9C28.7315 10.4409 25.9633 9.53514 21.8613 9.53514C20.3776 9.53514 18.7712 9.65625 17.1169 9.88672L17.5261 10.0724C19.2861 10.8886 20.8608 11.8993 22.1222 13.0105C22.5923 11.8633 22.9836 10.769 23.2862 9.76782C23.5773 9.79204 23.8598 9.81773 24.1331 9.85149C23.7826 11.0229 23.3241 12.3015 22.7698 13.6168C23.101 13.9486 23.4028 14.2855 23.6738 14.626C24.1778 15.2602 24.5553 15.8855 24.8054 16.4896L24.8077 16.4903Z" fill="#0966BB"/>
</svg>
