<svg xmlns="http://www.w3.org/2000/svg" width="123" height="54" viewBox="0 0 123 53.974992" clip-rule="evenodd" fill-rule="evenodd" image-rendering="optimizeQuality" shape-rendering="geometricPrecision" text-rendering="geometricPrecision"><g fill="#bcdbea"><path class="fil0" d="M49.266 35.399h-2.941v-17.754h3.069v12.96l8.979-12.96h2.916v17.754h-3.069v-12.935z"/><path class="fil0" d="M70.466 17.52h2.891l7.811 17.879h-3.295l-1.802-4.285h-8.395l-1.826 4.285h-3.197zm4.463 10.83l-3.069-7.101-3.044 7.101z"/><path class="fil0" d="M88.221 35.399h-3.144v-14.863h-5.631v-2.891h14.406v2.891h-5.631z"/><path class="fil0" d="M94.902 32.66l2.003-2.055c1.547 1.421 2.968 2.309 5.2 2.309 3.017 0 5.299-2.181 5.782-5.124h-7.963v-2.663h7.936c-.532-2.866-2.815-4.97-5.754-4.97-2.055 0-3.628.835-5.047 2.104l-1.777-2.129c1.675-1.574 3.603-2.79 6.799-2.79 5.351 0 9.129 4.159 9.129 9.182 0 5.147-3.831 9.18-9.004 9.18-3.348 0-5.479-1.115-7.303-3.042z"/><path class="fil0" d="M22.405 20.779c0 1.731-1.402 3.133-3.133 3.133-1.729 0-3.133-1.402-3.133-3.133 0-1.729 1.404-3.135 3.133-3.135 1.731 0 3.133 1.406 3.133 3.135zm-9.102-6.119c.388-.675.785-1.332 1.189-1.972-.425-.037-.843-.054-1.249-.054-2.728 0-4.711.847-5.43 2.327-.296.605-.376 1.293-.265 2.032 1.698-.851 3.635-1.64 5.754-2.332zm2.398-1.826c-.287.439-.567.888-.845 1.345.851-.25 1.723-.481 2.621-.694.715.186 1.443.414 2.167.68-.512.105-1.025.215-1.543.333-4.075.944-7.541 2.218-10.26 3.598.392 1.056 1.112 2.175 2.094 3.276.646-1.507 1.381-3.049 2.204-4.606l.162-.302c.489-.17.992-.333 1.508-.491-.24.427-.479.861-.712 1.301-2.065 3.908-3.504 7.58-4.384 10.789.613.039 1.257.06 1.927.06 1.762 0 3.655-.143 5.604-.406.65.31 1.305.591 1.958.842-2.638.456-5.209.696-7.563.696-6.045 0-9.856-1.495-10.461-4.1-.547-2.373 1.851-5.113 6.088-7.486.069.362.174.731.312 1.105-3.74 2.137-5.685 4.44-5.297 6.127.368 1.582 2.712 2.687 6.333 3.071.461-1.716 1.072-3.532 1.828-5.415-2.656-2.788-3.767-5.797-2.647-8.095.93-1.908 3.22-2.96 6.447-2.96 2.173 0 4.614.487 7.062 1.388 2.83-.518 5.6-.793 8.117-.793.778 0 1.516.023 2.216.071 1.348-5.575.891-9.548-1.024-10.564-.351-.186-.756-.279-1.2-.279-3.046 0-7.693 4.133-11.869 10.235-.406-.079-.806-.143-1.2-.194 4.5-6.753 9.51-11.129 13.071-11.129h.029c.615.004 1.179.14 1.681.404 2.536 1.34 2.992 5.795 1.609 11.624 4.114.46 6.666 1.837 7.15 3.93.476 2.046-1.175 4.401-4.649 6.635-.522.335-1.076.661-1.659.979.24 1.12.141 2.164-.306 3.081-.933 1.906-3.222 2.96-6.448 2.96-.481 0-.977-.033-1.483-.079.229-.356.454-.715.68-1.081.271.014.541.029.803.029 2.732 0 4.711-.849 5.432-2.328.714-1.454.221-3.426-1.382-5.546-.229-.302-.477-.603-.743-.901-.652 1.541-1.388 3.106-2.199 4.641l-.341.632c1.58-.562 3.059-1.183 4.401-1.853.149.377.256.748.315 1.103-2.893 1.419-6.365 2.627-10.087 3.486l-.209.049c.8.221 1.59.394 2.359.512l.613-.971c.533-.161 1.06-.327 1.578-.503-4.921 8.398-10.857 14.07-14.909 14.07-.624 0-1.198-.135-1.71-.402-2.456-1.301-2.963-5.527-1.731-11.094.354.033.719.058 1.095.077-1.198 5.308-.712 9.07 1.144 10.054.351.186.754.281 1.2.281 3.086 0 7.821-4.246 12.04-10.483-2.088-.38-4.291-1.108-6.433-2.152-2.237-1.093-4.182-2.398-5.741-3.796.149-.377.31-.76.469-1.142 1.537 1.448 3.507 2.819 5.768 3.922.7.343 1.408.648 2.113.919.696-.132 1.396-.279 2.096-.441 1.408-.327 2.778-.7 4.092-1.118.312-.543.615-1.095.911-1.657.886-1.673 1.667-3.358 2.342-4.985-1.599-1.553-3.662-2.974-5.994-4.115-2.214-1.081-4.49-1.814-6.611-2.143zm16.537 9.87c.483-.269.948-.543 1.384-.826 2.997-1.926 4.511-3.903 4.157-5.428-.458-1.988-4.044-3.222-9.358-3.222-1.922 0-4.003.165-6.146.479l.53.253c2.28 1.112 4.32 2.489 5.954 4.003.609-1.563 1.116-3.054 1.508-4.418.377.033.743.068 1.097.114-.454 1.596-1.048 3.338-1.766 5.13.429.452.82.911 1.171 1.375.653.864 1.142 1.716 1.466 2.539z"/><path class="fil0" d="M87.515 50.853l3.032-3.817v6.421h1.392v-9.029h-.8l-3.623 4.581-3.625-4.581h-.81v9.029h1.394v-6.421z"/><path class="fil0" d="M100.464 44.43h-.814l-4.771 6.374v-6.374h-1.396v9.029h.814l4.773-6.37v6.37h1.394z"/><path class="fil0" d="M122.937 53.458v-9.029h-.814l-4.769 6.374v-6.374h-1.396v9.029h.814l4.773-6.37v6.37z"/><path class="fil0" d="M111.398 44.75c-1.068 0-1.999.557-2.489 1.344v-1.665h-1.394v4.05c0 1.394-1.029 2.402-2.346 2.402-1.318 0-2.349-1.008-2.349-2.402 0-1.39 1.031-2.41 2.349-2.41.694 0 1.303.288 1.731.76v-1.409c-.5-.412-1.152-.669-1.874-.669-2.156 0-3.612 1.654-3.612 3.728 0 2.077 1.456 3.714 3.612 3.714 1.072 0 1.999-.541 2.489-1.326v2.592l1.414.006v-5.165c.089-1.297 1.083-2.229 2.342-2.229 1.315 0 2.347 1.019 2.347 2.41 0 1.394-1.033 2.402-2.347 2.402-.687 0-1.288-.279-1.718-.739v1.431c.493.385 1.133.621 1.845.621 2.143 0 3.601-1.638 3.601-3.714 0-2.074-1.458-3.728-3.601-3.728z"/><path class="fil0" d="M62.204 44.43h-.812l-4.773 6.374v-6.374h-1.392v9.031h.812l4.773-6.37v6.37h1.392z"/><path class="fil0" d="M47.68 49.013h4.591v4.448h1.394v-9.031h-1.394v3.191h-4.591v-3.191h-1.392v9.031h1.392z"/><path class="fil0" d="M76.829 48.09c-.322.642-1.148.491-1.293.481-.733-.042-1.371-.646-1.719-1.551-.031-.077-.058-.155-.748-2.592h-1.472c.69 2.44.837 2.91.864 2.992.582 1.702 1.966 2.719 3.86 2.284l-.487 1.543c-.327.955-1.45 1.28-2.682.94l-.406 1.344c1.937.588 3.852-.064 4.463-2.229l2.164-6.873h-1.394z"/><path class="fil0" d="M69.183 44.43h-2.352v.004c-2.052.015-3.438 1.596-3.438 3.577 0 1.227.535 2.293 1.427 2.933.217.155.456.283.712.382-.058.232-.14.468-.263.704-.031.062-.076.138-.898 1.429h1.673l.423-.682c.224-.392.378-.797.464-1.2h2.251v1.884h1.394v-9.031zm-4.44 3.581c0-1.336.994-2.317 2.256-2.317h2.183v4.62h-2.202c-1.253-.012-2.237-.971-2.237-2.303z"/></g></svg>