<svg width="70" height="70" viewBox="0 0 71 71" fill="none" xmlns="http://www.w3.org/2000/svg">
<path fill-rule="evenodd" clip-rule="evenodd" d="M39.9213 35.1807C39.9213 38.1452 37.5192 40.5463 34.5535 40.5463C31.5911 40.5463 29.1856 38.1452 29.1856 35.1807C29.1856 32.2196 31.5911 29.8116 34.5535 29.8116C37.5192 29.8116 39.9213 32.2196 39.9213 35.1807ZM24.3267 24.7011C24.9914 23.5451 25.6716 22.4199 26.3638 21.3239C25.6356 21.2605 24.9195 21.2314 24.2239 21.2314C19.5499 21.2314 16.1524 22.682 14.9206 25.2166C14.4134 26.2528 14.2764 27.4311 14.4665 28.6967C17.3757 27.2393 20.6944 25.888 24.325 24.7029L24.3267 24.7011ZM28.4352 21.5739C27.9435 22.3257 27.4637 23.0947 26.9874 23.8774C28.4455 23.4492 29.9395 23.0536 31.478 22.6888C32.7031 23.0074 33.9504 23.3978 35.1908 23.8534C34.3136 24.0332 33.4347 24.2216 32.5472 24.4237C25.5654 26.0404 19.627 28.2223 14.9685 30.5857C15.6402 32.3942 16.8737 34.3107 18.5562 36.1963C19.663 33.6153 20.9223 30.9745 22.3324 28.3079L22.6099 27.7907C23.4477 27.4996 24.3095 27.2204 25.1936 26.9498C24.7824 27.6811 24.3729 28.4244 23.9737 29.1779C20.4357 35.8709 17.9703 42.1596 16.4625 47.6554C17.5128 47.7222 18.6162 47.7582 19.7641 47.7582C22.783 47.7582 26.0263 47.5133 29.3655 47.0628C30.4792 47.5938 31.6014 48.075 32.7202 48.5049C28.2005 49.2858 23.7955 49.6969 19.7624 49.6969C9.40539 49.6969 2.87594 47.1365 1.83939 42.6751C0.902204 38.6111 5.01074 33.9185 12.2701 29.8544C12.3883 30.4744 12.5682 31.1064 12.8046 31.7469C6.39681 35.4067 3.06441 39.3509 3.72918 42.2401C4.35968 44.9495 8.37569 46.8419 14.5796 47.4996C15.3694 44.5607 16.4163 41.4506 17.7116 38.2257C13.161 33.4509 11.2575 28.2977 13.1764 24.362C14.7698 21.0944 18.6933 19.2927 24.2222 19.2927C27.9452 19.2927 32.1274 20.1267 36.3216 21.6698C41.1703 20.7827 45.9162 20.3117 50.2286 20.3117C51.5615 20.3117 52.826 20.3511 54.0253 20.4333C56.3348 10.8854 55.5519 4.08118 52.2709 2.34115C51.6695 2.02261 50.9756 1.86333 50.2149 1.86333C44.9961 1.86333 37.0343 8.9416 29.8795 19.392C29.1839 19.2567 28.4986 19.1471 27.8235 19.0598C35.5335 7.49443 44.1172 0 50.2183 0H50.268C51.3217 0.00685049 52.288 0.239767 53.1481 0.691899C57.493 2.98681 58.2743 10.6165 55.9048 20.5994C62.9534 21.3872 67.3258 23.7455 68.155 27.33C68.9706 30.834 66.1419 34.8673 60.1898 38.6933C59.2955 39.267 58.3463 39.8253 57.3474 40.3699C57.7586 42.2881 57.589 44.076 56.8231 45.6465C55.2246 48.9108 51.3028 50.7159 45.7757 50.7159C44.9516 50.7159 44.1018 50.6594 43.2348 50.5806C43.6272 49.9709 44.0127 49.3561 44.3999 48.7292C44.8642 48.7532 45.3268 48.7789 45.7757 48.7789C50.4565 48.7789 53.8471 47.3249 55.0824 44.7919C56.3057 42.3018 55.4611 38.9245 52.7146 35.2937C52.3223 34.7765 51.8974 34.261 51.4416 33.7506C50.3245 36.3898 49.0635 39.07 47.674 41.6989L47.0898 42.7813C49.7968 41.8188 52.3308 40.7553 54.6301 39.6078C54.8854 40.2535 55.0687 40.8888 55.1698 41.4968C50.2132 43.927 44.2645 45.9959 37.8876 47.467L37.5295 47.551C38.9001 47.9294 40.2537 48.2257 41.5712 48.4278L42.6215 46.7649C43.5347 46.4891 44.4376 46.2048 45.3251 45.9034C36.8938 60.286 26.7236 70 19.7812 70C18.7121 70 17.7287 69.7688 16.8515 69.3115C12.6436 67.0834 11.7749 59.8459 13.8857 50.3117C14.4922 50.3682 15.1176 50.411 15.7618 50.4436C13.7092 59.5342 14.5419 65.977 17.7218 67.6623C18.3232 67.9808 19.0137 68.1435 19.7778 68.1435C25.0651 68.1435 33.1777 60.8717 40.4061 50.1901C36.8287 49.5393 33.0543 48.2925 29.3844 46.5045C25.5517 44.6326 22.2193 42.3977 19.5482 40.0034C19.8035 39.3578 20.0794 38.7018 20.3518 38.0476C22.9851 40.5275 26.3604 42.8755 30.2342 44.7645C31.4335 45.3519 32.6465 45.8743 33.8544 46.3384C35.0469 46.1123 36.2462 45.8606 37.4455 45.5831C39.8579 45.0231 42.2051 44.3843 44.4564 43.6684C44.991 42.7385 45.5101 41.7931 46.0173 40.8306C47.5353 37.9654 48.8734 35.0796 50.0298 32.2932C47.2902 29.6335 43.7557 27.1999 39.7602 25.2458C35.9669 23.3944 32.0674 22.1391 28.4335 21.5756L28.4352 21.5739ZM56.7683 38.4775C57.5958 38.0168 58.3925 37.5475 59.1395 37.0629C64.2744 33.7643 66.8683 30.3785 66.2618 27.7667C65.4771 24.362 59.3332 22.2487 50.2286 22.2487C46.9356 22.2487 43.3702 22.5313 39.6985 23.069L40.6066 23.5023C44.513 25.4067 48.0081 27.765 50.8077 30.3579C51.8511 27.6811 52.7197 25.1276 53.3914 22.7916C54.0373 22.8481 54.6644 22.908 55.2709 22.9868C54.493 25.7202 53.4753 28.7035 52.2452 31.7726C52.9802 32.5467 53.6501 33.3328 54.2515 34.1274C55.3702 35.6071 56.2081 37.0663 56.7632 38.4758L56.7683 38.4775Z" fill="#0966BB"/>
</svg>
