<svg width="10" height="10" viewBox="0 0 10 10" fill="none" xmlns="http://www.w3.org/2000/svg">
<g clip-path="url(#clip0_50_43)">
<path d="M5 -9.53674e-07C2.23858 -9.53674e-07 -9.53674e-07 2.23858 -9.53674e-07 5C-9.53674e-07 7.76142 2.23858 10 5 10C7.76142 10 10 7.76142 10 5C10 2.23858 7.76142 -9.53674e-07 5 -9.53674e-07Z" fill="#05315A"/>
<mask id="mask0_50_43" style="mask-type:alpha" maskUnits="userSpaceOnUse" x="0" y="0" width="10" height="10">
<path d="M5 0.5C2.51472 0.5 0.5 2.51472 0.5 5C0.5 7.48528 2.51472 9.5 5 9.5C7.48528 9.5 9.5 7.48528 9.5 5C9.5 2.51472 7.48528 0.5 5 0.5Z" fill="#0068B1"/>
</mask>
<g mask="url(#mask0_50_43)">
<path d="M1.4548 8.61187L5.07627 12.2333L12.1926 5.11697L8.57117 1.4955L1.4548 8.61187Z" fill="white"/>
</g>
</g>
<defs>
<clipPath id="clip0_50_43">
<rect width="10" height="10" fill="white"/>
</clipPath>
</defs>
</svg>
