<svg width="35" height="35" viewBox="0 0 35 35" fill="none" xmlns="http://www.w3.org/2000/svg">
<path d="M17.4999 2.91663C16.3749 2.91663 15.2154 3.07344 14.1916 3.30969C13.9696 3.36102 13.7691 3.48043 13.6182 3.65125C13.4673 3.82206 13.3735 4.03575 13.35 4.26245L13.1349 6.33887C13.0323 7.04758 12.6114 7.70427 12.0639 8.02364C11.5153 8.34369 10.6788 8.39694 10.083 8.12191C10.0782 8.1195 10.0735 8.11713 10.0687 8.11479L8.10053 7.24036C7.89406 7.14857 7.66423 7.12298 7.44263 7.1671C7.22102 7.21122 7.01852 7.32288 6.86294 7.48673C5.36203 9.06664 4.17712 11.0381 3.54181 13.2617C3.47957 13.4796 3.48656 13.7115 3.56182 13.9253C3.63708 14.1391 3.7769 14.3242 3.96194 14.4551L5.7108 15.6941C5.71926 15.7004 5.7278 15.7066 5.73643 15.7126C6.26141 16.0626 6.56244 16.719 6.56244 17.4273C6.56244 18.0822 6.19189 18.8079 5.70368 19.1648L3.96194 20.3995C3.77718 20.5303 3.63754 20.7152 3.5623 20.9287C3.48705 21.1422 3.47989 21.3738 3.54181 21.5916C4.17901 23.8217 5.37443 25.7217 6.84585 27.348C7.00032 27.5188 7.20477 27.6365 7.43006 27.6843C7.65535 27.7322 7.88999 27.7076 8.10053 27.6143L10.0687 26.7384C10.0735 26.7366 10.0782 26.7347 10.083 26.7327C10.6982 26.4488 11.4183 26.4836 12.0953 26.8481C12.7104 27.1793 13.081 27.7878 13.1278 28.4432C13.1286 28.4546 13.1295 28.466 13.1306 28.4773L13.35 30.5922C13.3737 30.822 13.4696 31.0383 13.6239 31.2102C13.7781 31.3821 13.9829 31.5008 14.2087 31.5492C15.2782 31.7784 16.3749 31.938 17.4999 31.938C18.6249 31.938 19.7845 31.7812 20.8083 31.545C21.0293 31.494 21.229 31.3757 21.3798 31.2063C21.5306 31.0369 21.625 30.8248 21.6499 30.5993L21.8636 28.6653V28.6639C21.9654 27.954 22.3876 27.2961 22.9359 26.9763C23.4846 26.6562 24.321 26.603 24.9169 26.878C24.9217 26.8804 24.9264 26.8828 24.9312 26.8851L26.8994 27.7596C27.1058 27.8513 27.3357 27.8769 27.5573 27.8328C27.7789 27.7887 27.9814 27.677 28.1369 27.5132C29.6378 25.9333 30.8228 23.9618 31.4581 21.7382C31.5203 21.5203 31.5133 21.2884 31.4381 21.0746C31.3628 20.8608 31.223 20.6757 31.0379 20.5448L29.2891 19.3058C29.2806 19.2995 29.2721 19.2933 29.2635 19.2873C28.7385 18.9373 28.4374 18.2809 28.4374 17.5726C28.4374 16.9177 28.808 16.1921 29.2962 15.8351L31.0379 14.6004C31.2227 14.4696 31.3623 14.2847 31.4376 14.0712C31.5128 13.8577 31.52 13.6261 31.4581 13.4084C30.8209 11.1782 29.6255 9.27825 28.154 7.65194C27.9996 7.48111 27.7951 7.3634 27.5698 7.31558C27.3445 7.26776 27.1099 7.29227 26.8994 7.38562L24.9312 8.26147C24.9264 8.26334 24.9217 8.26524 24.9169 8.26717C24.3017 8.55115 23.5816 8.51634 22.9046 8.15182C22.2895 7.82059 21.9189 7.21209 21.8721 6.55676C21.8713 6.54773 21.8703 6.53871 21.8692 6.5297L21.6514 4.26957C21.6289 4.03835 21.5335 3.82026 21.3788 3.64692C21.2242 3.47357 21.0183 3.35396 20.7912 3.30542C19.7216 3.07624 18.6249 2.91663 17.4999 2.91663ZM17.4999 5.10413C18.1659 5.10413 18.8626 5.23394 19.5578 5.35193L19.6903 6.71342V6.71484C19.7897 8.10066 20.5861 9.38789 21.8664 10.0773C23.0853 10.7336 24.5521 10.8449 25.8327 10.2539L26.9933 9.73832C27.8826 10.8244 28.5828 12.0128 29.0584 13.3229L28.0244 14.0549C28.0206 14.0578 28.0168 14.0606 28.013 14.0635C26.8986 14.874 26.2499 16.1872 26.2499 17.5726C26.2499 18.9059 26.8251 20.2907 28.0501 21.1073L29.0598 21.8251C28.5806 23.1561 27.8772 24.3618 26.9976 25.4097L25.8198 24.8856L25.8327 24.8927C24.5327 24.2928 23.035 24.3856 21.8336 25.0864C20.6323 25.7872 19.889 27.0251 19.6988 28.3563C19.6972 28.3672 19.6958 28.3781 19.6946 28.389L19.5707 29.5027C18.8828 29.6214 18.1738 29.7505 17.4999 29.7505C16.8322 29.7505 16.1336 29.6213 15.4363 29.5027L15.3096 28.2865C15.2106 26.9002 14.4142 25.6123 13.1335 24.9226C11.9146 24.2663 10.4478 24.155 9.16722 24.7461L8.00654 25.2616C7.11731 24.1755 6.41708 22.9871 5.94151 21.677L6.97545 20.945C6.97926 20.9422 6.98306 20.9393 6.98684 20.9364C8.10131 20.1259 8.74994 18.8127 8.74994 17.4273C8.74994 16.094 8.17483 14.7093 6.94981 13.8926L5.94009 13.1748C6.4193 11.8438 7.12273 10.6381 8.00226 9.59021L9.18004 10.1143L9.16722 10.1072C10.4672 10.7071 11.9649 10.6143 13.1662 9.91349C14.3676 9.21271 15.1109 7.97486 15.3011 6.64364C15.3032 6.62991 15.3051 6.61614 15.3067 6.60234L15.4363 5.3505C16.1222 5.23254 16.8284 5.10413 17.4999 5.10413ZM17.4999 11.6666C14.2912 11.6666 11.6666 14.2913 11.6666 17.5C11.6666 20.7087 14.2912 23.3333 17.4999 23.3333C20.7087 23.3333 23.3333 20.7087 23.3333 17.5C23.3333 14.2913 20.7087 11.6666 17.4999 11.6666ZM17.4999 13.8541C19.5264 13.8541 21.1458 15.4735 21.1458 17.5C21.1458 19.5265 19.5264 21.1458 17.4999 21.1458C15.4734 21.1458 13.8541 19.5265 13.8541 17.5C13.8541 15.4735 15.4734 13.8541 17.4999 13.8541Z" fill="black"/>
</svg>
