<svg width="18" height="18" viewBox="0 0 18 18" fill="none" xmlns="http://www.w3.org/2000/svg">
<path d="M8.9999 1.5C8.42133 1.5 7.82499 1.58065 7.29849 1.70215C7.18428 1.72855 7.08117 1.78996 7.00357 1.87781C6.92596 1.96565 6.87773 2.07555 6.86562 2.19214L6.75503 3.26001C6.70224 3.62449 6.48581 3.96222 6.20425 4.12647C5.92208 4.29106 5.49191 4.31845 5.18545 4.177C5.18302 4.17576 5.18057 4.17454 5.17812 4.17334L4.16592 3.72363C4.05973 3.67643 3.94153 3.66327 3.82757 3.68596C3.7136 3.70865 3.60945 3.76607 3.52944 3.85034C2.75755 4.66286 2.14816 5.67677 1.82143 6.82031C1.78942 6.9324 1.79302 7.05165 1.83172 7.16161C1.87043 7.27156 1.94233 7.36677 2.0375 7.43408L2.93691 8.07129C2.94126 8.07453 2.94566 8.0777 2.9501 8.08081C3.22009 8.2608 3.3749 8.59836 3.3749 8.96265C3.3749 9.29945 3.18433 9.67263 2.93325 9.8562L2.0375 10.4912C1.94248 10.5585 1.87067 10.6536 1.83197 10.7634C1.79327 10.8732 1.78959 10.9923 1.82143 11.1042C2.14913 12.2512 2.76392 13.2283 3.52065 14.0647C3.6001 14.1526 3.70524 14.2131 3.8211 14.2377C3.93697 14.2623 4.05764 14.2497 4.16592 14.2017L5.17812 13.7512C5.18057 13.7503 5.18301 13.7493 5.18545 13.7483C5.50188 13.6022 5.8722 13.6201 6.22036 13.8076C6.53671 13.978 6.72729 14.2909 6.75137 14.6279C6.75176 14.6338 6.75225 14.6397 6.75283 14.6455L6.86562 15.7332C6.87784 15.8513 6.92716 15.9626 7.00649 16.051C7.08583 16.1394 7.19112 16.2004 7.30727 16.2253C7.85732 16.3432 8.42133 16.4253 8.9999 16.4253C9.57847 16.4253 10.1748 16.3446 10.7013 16.2231C10.815 16.197 10.9177 16.1361 10.9953 16.049C11.0728 15.9618 11.1214 15.8528 11.1342 15.7368L11.244 14.7422V14.7415C11.2964 14.3763 11.5136 14.038 11.7956 13.8735C12.0777 13.7089 12.5079 13.6816 12.8144 13.823C12.8168 13.8242 12.8192 13.8255 12.8217 13.8267L13.8339 14.2764C13.9401 14.3236 14.0583 14.3367 14.1722 14.314C14.2862 14.2914 14.3903 14.2339 14.4704 14.1497C15.2423 13.3371 15.8516 12.3232 16.1784 11.1797C16.2104 11.0676 16.2068 10.9483 16.1681 10.8384C16.1294 10.7284 16.0575 10.6332 15.9623 10.5659L15.0629 9.92871C15.0585 9.92547 15.0541 9.9223 15.0497 9.91919C14.7797 9.7392 14.6249 9.40164 14.6249 9.03735C14.6249 8.70055 14.8155 8.32737 15.0666 8.1438L15.9623 7.50879C16.0573 7.44152 16.1291 7.34644 16.1678 7.23663C16.2065 7.12683 16.2102 7.00773 16.1784 6.89575C15.8507 5.74881 15.2359 4.77169 14.4791 3.9353C14.3997 3.84745 14.2946 3.78691 14.1787 3.76232C14.0628 3.73773 13.9422 3.75033 13.8339 3.79834L12.8217 4.24878C12.8192 4.24974 12.8168 4.25072 12.8144 4.25171C12.4979 4.39776 12.1276 4.37985 11.7794 4.19238C11.4631 4.02204 11.2725 3.7091 11.2484 3.37207C11.248 3.36743 11.2475 3.36279 11.247 3.35815L11.1349 2.1958C11.1234 2.07689 11.0743 1.96473 10.9948 1.87558C10.9152 1.78643 10.8094 1.72492 10.6925 1.69995C10.1425 1.58209 9.57847 1.5 8.9999 1.5ZM8.9999 2.625C9.3424 2.625 9.70067 2.69176 10.0583 2.75244L10.1264 3.45264V3.45337C10.1775 4.16607 10.5871 4.82808 11.2455 5.18262C11.8723 5.52015 12.6267 5.57739 13.2853 5.27344L13.8822 5.0083C14.3395 5.56685 14.6997 6.17805 14.9442 6.85181L14.4125 7.22827C14.4105 7.22972 14.4086 7.23119 14.4066 7.23267C13.8335 7.64951 13.4999 8.32485 13.4999 9.03735C13.4999 9.72307 13.7957 10.4352 14.4257 10.8552L14.945 11.2244C14.6985 11.9089 14.3368 12.5289 13.8844 13.0679L13.2787 12.7983L13.2853 12.802C12.6168 12.4934 11.8465 12.5412 11.2287 12.9016C10.6108 13.262 10.2286 13.8986 10.1308 14.5833C10.1299 14.5889 10.1292 14.5945 10.1286 14.6001L10.0648 15.1729C9.71107 15.2339 9.34644 15.3003 8.9999 15.3003C8.65647 15.3003 8.29722 15.2338 7.93862 15.1729L7.87344 14.5474C7.82251 13.8344 7.41294 13.172 6.7543 12.8174C6.12746 12.4799 5.37307 12.4226 4.7145 12.7266L4.11758 12.9917C3.66026 12.4332 3.30014 11.822 3.05557 11.1482L3.5873 10.7717C3.58927 10.7703 3.59122 10.7688 3.59316 10.7673C4.16632 10.3505 4.4999 9.67515 4.4999 8.96265C4.4999 8.27693 4.20413 7.56478 3.57412 7.14478L3.05483 6.77564C3.30128 6.09112 3.66305 5.47105 4.11538 4.93213L4.72109 5.20166L4.7145 5.198C5.38304 5.50655 6.15331 5.45879 6.77114 5.09839C7.38897 4.73799 7.77124 4.10138 7.86904 3.41675C7.87015 3.40969 7.87113 3.40261 7.87197 3.39551L7.93862 2.75171C8.29137 2.69104 8.65455 2.625 8.9999 2.625ZM8.9999 6C7.34971 6 5.9999 7.34981 5.9999 9C5.9999 10.6502 7.34971 12 8.9999 12C10.6501 12 11.9999 10.6502 11.9999 9C11.9999 7.34981 10.6501 6 8.9999 6ZM8.9999 7.125C10.0421 7.125 10.8749 7.9578 10.8749 9C10.8749 10.0422 10.0421 10.875 8.9999 10.875C7.9577 10.875 7.1249 10.0422 7.1249 9C7.1249 7.9578 7.9577 7.125 8.9999 7.125Z" fill="black"/>
</svg>
