<svg width="18" height="18" viewBox="0 0 18 18" fill="none" xmlns="http://www.w3.org/2000/svg">
<path d="M1.22178 2.63604C0.831254 2.24552 0.831254 1.61235 1.22178 1.22183C1.6123 0.831301 2.24547 0.831301 2.63599 1.22183L16.7781 15.364C17.1687 15.7545 17.1687 16.3877 16.7781 16.7782C16.3876 17.1687 15.7544 17.1687 15.3639 16.7782L1.22178 2.63604Z" fill="white"/>
<path d="M2.63599 16.7782C2.24547 17.1687 1.6123 17.1687 1.22178 16.7782C0.831254 16.3877 0.831254 15.7545 1.22178 15.364L15.3639 1.22183C15.7544 0.831301 16.3876 0.831301 16.7781 1.22183C17.1687 1.61235 17.1687 2.24551 16.7781 2.63604L2.63599 16.7782Z" fill="white"/>
</svg>
